# xmcd
# 
# Track frame offsets:
#     150
#     22449
#     45110
#     57114
#     77235
#     94944
#     120550
#     148410
#     175108
#     199622
#     212456
#     230243
#     247614
# 
# Disc length: 3595
# 
# Revision: 2
# Processed by: cddbd v1.5.2PL0 Copyright (c) Steve Scherf et al.
# Submitted via: fre:ac v1.0.17
# 
DISCID=af0e090d
DTITLE=SOIL&"PIMP" SESSIONS - Pimpoint
DYEAR=2007
DGENRE=Jazz
TTITLE0=Dawn
TTITLE1=A.I.E
TTITLE2=マクロケ
TTITLE3=マシロケ
TTITLE4=We Want More!!!!!!
TTITLE5=Zambezi
TTITLE6=Red Clay
TTITLE7=Hype Of Gold
TTITLE8=Pluto
TTITLE9=The Party
TTITLE10=Funky Goldman
TTITLE11=The Slaughter Suite
TTITLE12=Scales
EXTD=YEAR: 2007
EXTT0=
EXTT1=
EXTT2=
EXTT3=
EXTT4=
EXTT5=
EXTT6=
EXTT7=
EXTT8=
EXTT9=
EXTT10=
EXTT11=
EXTT12=
PLAYORDER=
